<svg width="28" height="28" viewBox="0 0 28 28" fill="none" xmlns="http://www.w3.org/2000/svg">
<g clip-path="url(#clip0_53_13097)">
<path d="M9.65445 18.0636C9.10364 17.6915 8.72236 17.1481 8.51416 16.4297L9.79259 15.9028C9.90864 16.3449 10.1113 16.6875 10.4005 16.9307C10.6879 17.1739 11.0379 17.2936 11.4468 17.2936C11.865 17.2936 12.2242 17.1665 12.5244 16.9123C12.8247 16.6581 12.9758 16.3339 12.9758 15.9415C12.9758 15.5399 12.8174 15.212 12.5005 14.9578C12.1836 14.7036 11.7858 14.5765 11.3105 14.5765H10.5718V13.311H11.235C11.6439 13.311 11.9884 13.2004 12.2684 12.9794C12.5484 12.7583 12.6884 12.4563 12.6884 12.0713C12.6884 11.7286 12.5631 11.456 12.3126 11.2515C12.0621 11.0471 11.7452 10.9439 11.3602 10.9439C10.9844 10.9439 10.686 11.0434 10.4649 11.2442C10.2439 11.445 10.0836 11.6918 9.9823 11.9829L8.71678 11.456C8.88439 10.9807 9.19207 10.5607 9.64335 10.1979C10.0947 9.83497 10.6713 9.65259 11.3713 9.65259C11.8889 9.65259 12.3549 9.75206 12.7676 9.95288C13.1802 10.1537 13.5044 10.4318 13.7384 10.7855C13.9724 11.141 14.0884 11.5389 14.0884 11.981C14.0884 12.4324 13.9797 12.8136 13.7624 13.1268C13.545 13.44 13.2779 13.6794 12.961 13.8471V13.9226C13.3792 14.0976 13.72 14.3647 13.9889 14.724C14.256 15.0832 14.3905 15.5124 14.3905 16.0135C14.3905 16.5145 14.2634 16.9621 14.0092 17.3545C13.755 17.7469 13.4031 18.0564 12.9573 18.2811C12.5097 18.5058 12.0068 18.62 11.4486 18.62C10.8021 18.6218 10.2053 18.4358 9.65445 18.0636ZM17.5074 11.7194L16.1036 12.7344L15.4018 11.6697L17.92 9.8534H18.8853V18.421H17.5074V11.7194Z" fill="#0085F7"/>
<path d="M21.3683 21.3684H6.63149L4.52197 24.4767L6.63149 28H21.3683L23.1111 24.2514L21.3683 21.3684Z" fill="#00A94B"/>
<path d="M21.3684 0H2.21052C0.989188 0 0 0.989188 0 2.21052V21.3684L3.31581 23.7256L6.63163 21.3684V6.63157H21.3685L23.637 3.31576L21.3684 0Z" fill="#0085F7"/>
<path d="M0 21.3684V25.7895C0 27.0108 0.989188 28 2.21052 28H6.63157V21.3684H0Z" fill="#00802E"/>
<path d="M28 6.63162L24.6842 4.49805L21.3684 6.63162V21.3685L24.3505 22.9251L28 21.3685V6.63162Z" fill="#FFBC00"/>
<path d="M28 6.63157V2.21052C28 0.989188 27.0108 0 25.7895 0H21.3684V6.63157H28Z" fill="#0067D5"/>
<path d="M21.3684 28L28 21.3684H21.3684V28Z" fill="#FF4131"/>
</g>
<defs>
<clipPath id="clip0_53_13097">
<rect width="28" height="28" fill="white"/>
</clipPath>
</defs>
</svg>
