<svg width="28" height="28" viewBox="0 0 28 28" fill="none" xmlns="http://www.w3.org/2000/svg">
<path d="M22.1667 22.1666V9.33329H5.83333V22.1666H22.1667ZM18.6667 1.16663H21V3.49996H22.1667C22.7855 3.49996 23.379 3.74579 23.8166 4.18338C24.2542 4.62096 24.5 5.21445 24.5 5.83329V22.1666C24.5 23.4616 23.4617 24.5 22.1667 24.5H5.83333C5.21449 24.5 4.621 24.2541 4.18342 23.8165C3.74583 23.379 3.5 22.7855 3.5 22.1666V5.83329C3.5 4.53829 4.53833 3.49996 5.83333 3.49996H7V1.16663H9.33333V3.49996H18.6667V1.16663ZM12.8333 11.0833H15.1667V14.5833H18.6667V16.9166H15.1667V20.4166H12.8333V16.9166H9.33333V14.5833H12.8333V11.0833Z" fill="#B75500"/>
</svg>
